<?xml version="1.0" encoding="utf-8"?>
<!-- Generator: Adobe Illustrator 26.0.1, SVG Export Plug-In . SVG Version: 6.00 Build 0)  -->
<svg version="1.1" id="Capa_1" xmlns="http://www.w3.org/2000/svg" xmlns:xlink="http://www.w3.org/1999/xlink" x="0px" y="0px"
	 viewBox="0 0 400 200" style="enable-background:new 0 0 400 200;" xml:space="preserve">
<style type="text/css">
	.st0{fill:#569CD3;}
	.st1{fill:#A4BA6C;}
	.st2{fill:#7C8083;}
</style>
<g>
	<path class="st0" d="M39.4,70.8c15.2-15.4,39.8-15.4,54.9,0L108,56.9c-18.9-19.2-49.7-19.2-68.6,0c-19,19.2-19,50.4,0,69.6
		C24.2,111.2,24.2,86.2,39.4,70.8"/>
	<path class="st1" d="M109.4,58.4c13.8,15.5,13.3,39.3-1.4,54.2c-15.2,15.4-39.8,15.4-54.9,0l-13.7,13.9c19,19.2,49.7,19.2,68.6,0
		C126.5,107.8,126.9,77.7,109.4,58.4"/>
	<path class="st2" d="M141.6,112.6V70.8h14.6c4.1,0,7.3,0.3,9.6,0.8c2.3,0.5,4.5,1.6,6.7,3.1c2.7,1.9,4.7,4.2,6.2,7.2
		c1.5,2.9,2.2,6.2,2.2,9.8c0,7-2.6,12.5-7.8,16.4c-2.1,1.5-4.5,2.7-7.1,3.4c-2.6,0.7-5.8,1.1-9.4,1.1H141.6z M149.9,78v27.4h7.4
		c4.9,0,8.7-1.2,11.3-3.5c2.6-2.4,3.9-5.7,3.9-10.1c0-4.7-1.5-8.4-4.6-10.9c-1.3-1-2.6-1.8-4.1-2.2c-1.5-0.4-3.4-0.6-5.8-0.6H149.9z
		"/>
	<rect x="187.7" y="70.8" class="st2" width="8.2" height="41.8"/>
	<polygon class="st2" points="202.7,112.6 202.7,68.8 224.7,100.6 246.9,68.8 246.9,112.6 238.6,112.6 238.6,90.8 224.7,113.8 
		210.9,90.8 210.9,112.6 	"/>
	<polygon class="st2" points="283.2,112.6 300.9,90.8 284.6,70.8 295.1,70.8 306,84.5 317.1,70.8 327.6,70.8 311.2,90.8 
		328.9,112.6 318.6,112.6 306.1,97.3 293.6,112.6 	"/>
	<polygon class="st2" points="261.9,105.4 261.9,95.3 276.8,95.3 276.8,88.1 261.9,88.1 261.9,78 283.6,78 283.6,70.8 253.7,70.8 
		253.7,112.6 283.4,112.6 283.4,105.4 	"/>
	<path class="st2" d="M365,112.6h9.6l-24.7-43.7l-24.7,43.7h9.6l3.5-6.1h23.4L365,112.6z M349.8,84.7l7.7,14.6h-15.3L349.8,84.7z"/>
	<path class="st2" d="M153.8,147.2l1.1,1.4c-1.6,1.5-3.6,2.3-5.7,2.3c-4.6,0-7.6-2.9-7.6-9c0-6.8,4.2-9.1,7.7-9.1
		c1.8,0,4.1,0.6,5.7,2.9l-1.5,1.1c-1.1-1.3-2.5-2.2-4.3-2.2c-3.4,0-5.5,2.7-5.5,7.1c0,4.6,1.8,7.4,5.5,7.4
		C150.9,149.1,152.3,148.4,153.8,147.2"/>
	<path class="st2" d="M162.2,137.1c1.8,0,5.4,0.6,5.4,6.5c0,5.1-2.6,7.3-5.8,7.3c-3.3,0-5.4-2.3-5.4-7
		C156.4,138.5,159.6,137.1,162.2,137.1 M165.5,144.1c0-3.2-0.9-5.4-3.5-5.4c-2.5,0-3.6,2.1-3.6,4.9c0,2.6,0.5,5.7,3.5,5.7
		C164.5,149.3,165.5,146.9,165.5,144.1"/>
	<path class="st2" d="M170.8,150.5v-11.1l-0.1-2h1.8l0.2,1.9c1-1.5,2.5-2.3,4.2-2.3c2.7,0,4.2,1.5,4.2,4.5v8.9H179v-8.3
		c0-1.9-0.4-3.5-2.6-3.5c-2,0-3.6,1.7-3.6,3.2v8.6H170.8z"/>
	<path class="st2" d="M187,156h-2.1v-19.8c0-2.1,0.6-4.4,4.6-4.4c1.6,0,3.5,0.6,4.5,1.1l-0.6,1.5c-1.2-0.5-2.5-0.9-3.8-0.9
		c-2,0-2.7,0.9-2.7,2.8v1.3h7.5v13h-2.1v-11.4H187V156z"/>
	<path class="st2" d="M208.5,148.2l0.2,2.3h-1.8l-0.2-1.5l-0.1,0c-0.7,0.9-1.8,1.9-3.8,1.9c-3.7,0-5.2-2.5-5.2-6.3
		c0-4.6,2.2-7.5,6.6-7.5c0.8,0,2.6,0.2,4.3,0.8V148.2z M206.5,139.1c-0.5-0.2-1.5-0.4-2.6-0.4c-3.2,0-4.2,2.6-4.2,5.9
		c0,2.3,0.7,4.7,3.4,4.7c2.2,0,3.4-1.5,3.4-3V139.1z"/>
	<path class="st2" d="M212.4,150.5v-11.1l-0.1-2h1.8l0.2,1.9c1-1.5,2.5-2.3,4.2-2.3c2.7,0,4.2,1.5,4.2,4.5v8.9h-2.1v-8.3
		c0-1.9-0.4-3.5-2.6-3.5c-2,0-3.6,1.7-3.6,3.2v8.6H212.4z"/>
	<path class="st2" d="M234.3,139l-6.1,6.3l1.8,0.8c2.8,1.3,4.3,3,4.3,5.9c0,3.3-2.1,5.4-5.2,5.4c-2.9,0-4.2-1.6-4.2-4
		c0-2.5,1.6-4.5,4.2-5.9c-0.9-0.4-1.8-0.8-2.7-1.3v-1.5l5.4-5.7h-6.7v-1.7h9.1V139z M229.3,155.9c2.1,0,3.2-1.7,3.2-3.8
		c0-1.8-0.7-2.9-1.9-3.6c-2.6,1.3-3.7,3.2-3.7,4.8C226.8,154.8,227.5,155.9,229.3,155.9"/>
	<path class="st2" d="M246.4,148.2l0.2,2.3h-1.8l-0.2-1.5l-0.1,0c-0.7,0.9-1.8,1.9-3.8,1.9c-3.7,0-5.2-2.5-5.2-6.3
		c0-4.6,2.2-7.5,6.6-7.5c0.8,0,2.6,0.2,4.3,0.8V148.2z M244.4,139.1c-0.5-0.2-1.5-0.4-2.6-0.4c-3.2,0-4.2,2.6-4.2,5.9
		c0,2.3,0.7,4.7,3.4,4.7c2.2,0,3.4-1.5,3.4-3V139.1z"/>
	<path class="st2" d="M266,153.6c-0.7,2.5-2.3,3.9-5.1,3.9c-2.7,0-4-1.3-4-3.3c0-2.1,1.6-3.6,2.9-4.5c-2.2-0.2-3.7-1.3-3.7-4.3v-7.9
		h2.1v7.4c0,2,0.2,3.5,3,3.5c2,0,3.2-1.3,3.2-3.1v-7.8h2V150C266.3,151.1,266.2,152.7,266,153.6 M261.1,155.9c2.4,0,3.2-2.1,3.2-4.9
		v-2.3c-3.2,1.3-5.4,2.7-5.4,5.2C258.8,155.2,259.6,155.9,261.1,155.9"/>
	<path class="st2" d="M281.5,133.1c2.8,0,5.5,0.8,5.5,4.3c0,1.9-1.1,3.1-2.8,3.8c2.2,0.4,3.7,1.8,3.7,4.3c0,3.4-2.2,5.1-6.4,5.1
		h-5.3v-17.5H281.5z M278.2,140.4h2.6c2.8,0,4-1.2,4-2.9c0-2.3-1.7-2.8-3.8-2.8h-2.7V140.4z M278.2,148.8h3.2c3.2,0,4.2-1.5,4.2-3.4
		c0-2.2-1.5-3.4-4.1-3.4h-3.3V148.8z"/>
	<path class="st2" d="M292,132.4c0.8,0,1.4,0.6,1.4,1.4c0,0.8-0.6,1.4-1.4,1.4c-0.8,0-1.3-0.6-1.3-1.4
		C290.6,133,291.2,132.4,292,132.4 M291,137.5h2.1v13H291V137.5z"/>
	<path class="st2" d="M306.1,140.4c0,3.9-4.7,4.5-7.2,4.5c-0.3,0-0.5,0-0.7,0c0.1,2.2,1.2,4.4,3.9,4.4c1.8,0,2.9-0.8,3.4-1.2
		l0.8,1.3c-0.7,0.6-2.2,1.5-4.3,1.5c-4.1,0-5.8-2.8-5.8-6.7c0-3.9,2.1-7.1,6.1-7.1C304.7,137.1,306.1,138.4,306.1,140.4
		 M302.2,138.6c-2.8,0-3.9,2.7-4,4.7c0.2,0,0.3,0,0.5,0c1.8,0,5.5-0.4,5.5-2.8C304.2,139.4,303.4,138.6,302.2,138.6"/>
	<path class="st2" d="M308.8,150.5v-11.1l-0.1-2h1.8l0.2,1.9c1-1.5,2.5-2.3,4.2-2.3c2.7,0,4.2,1.5,4.2,4.5v8.9h-2.1v-8.3
		c0-1.9-0.4-3.5-2.6-3.5c-2,0-3.6,1.7-3.6,3.2v8.6H308.8z"/>
	<path class="st2" d="M332.2,140.4c0,3.9-4.7,4.5-7.2,4.5c-0.3,0-0.5,0-0.7,0c0.1,2.2,1.2,4.4,3.9,4.4c1.8,0,2.9-0.8,3.4-1.2
		l0.8,1.3c-0.7,0.6-2.2,1.5-4.3,1.5c-4.1,0-5.8-2.8-5.8-6.7c0-3.9,2.1-7.1,6.1-7.1C330.8,137.1,332.2,138.4,332.2,140.4
		 M328.3,138.6c-2.8,0-3.9,2.7-4,4.7c0.2,0,0.3,0,0.5,0c1.8,0,5.5-0.4,5.5-2.8C330.3,139.4,329.4,138.6,328.3,138.6"/>
	<path class="st2" d="M334.6,148.2c0.8,0.5,2.1,1.2,3.6,1.2c1.5,0,2.6-0.7,2.6-2.2c0-1.5-1.2-2-2.7-2.4c-2.1-0.5-4-1.2-4-3.8
		c0-2.6,2.1-3.9,4.4-3.9c1.9,0,3.4,0.8,4.4,1.8l-1.2,1.2c-0.9-0.8-1.9-1.4-3.3-1.4c-1.1,0-2.4,0.6-2.4,2c0,1.5,1.3,1.9,2.8,2.4
		c1.9,0.6,4,1.2,4,3.9c0,2.6-1.9,4-4.6,4c-2.1,0-3.8-0.8-4.4-1.3L334.6,148.2z"/>
	<path class="st2" d="M347.6,132.3v5.2h3.7v1.8h-3.7v7.8c0,1.7,0.7,2.3,1.9,2.3c0.9,0,1.6-0.4,2-0.6l0.6,1.4c-0.8,0.5-1.9,0.9-3,0.9
		c-3.5,0-3.6-2-3.6-3.9v-14.7H347.6z"/>
	<path class="st2" d="M364,148.2l0.2,2.3h-1.8l-0.2-1.5l-0.1,0c-0.7,0.9-1.8,1.9-3.8,1.9c-3.7,0-5.2-2.5-5.2-6.3
		c0-4.6,2.2-7.5,6.6-7.5c0.8,0,2.6,0.2,4.3,0.8V148.2z M362,139.1c-0.5-0.2-1.5-0.4-2.6-0.4c-3.2,0-4.2,2.6-4.2,5.9
		c0,2.3,0.7,4.7,3.4,4.7c2.2,0,3.4-1.5,3.4-3V139.1z"/>
	<path class="st2" d="M370,150.5h-2v-11.3l-0.2-1.8h1.8l0.2,1.9c0.6-1.5,1.8-2.3,3.3-2.3c0.8,0,1.6,0.2,2.1,0.5l-0.6,1.8
		c-0.4-0.2-1.1-0.5-1.7-0.5c-1.7,0-2.8,1.5-2.8,3.3V150.5z"/>
</g>
</svg>
