<svg width="351" height="116" viewBox="0 0 351 116" fill="none" xmlns="http://www.w3.org/2000/svg">
<path d="M14.4 28.8C29.6 13.4 54.2 13.4 69.3 28.8L83 14.9C64.1 -4.3 33.3 -4.3 14.4 14.9C-4.60001 34.1 -4.60001 65.3 14.4 84.5C-0.800006 69.2 -0.800006 44.2 14.4 28.8Z" fill="#1A83BC"/>
<path d="M84.4 16.4C98.2 31.9 97.7 55.7 83 70.6C67.8 86 43.2 86 28.1 70.6L14.4 84.5C33.4 103.7 64.1 103.7 83 84.5C101.5 65.8 101.9 35.7 84.4 16.4Z" fill="#4CA134"/>
<path d="M116.6 70.6V28.8H131.2C135.3 28.8 138.5 29.1 140.8 29.6C143.1 30.1 145.3 31.2 147.5 32.7C150.2 34.6 152.2 36.9 153.7 39.9C155.2 42.8 155.9 46.1 155.9 49.7C155.9 56.7 153.3 62.2 148.1 66.1C146 67.6 143.6 68.8 141 69.5C138.4 70.2 135.2 70.6 131.6 70.6H116.6ZM124.9 36V63.4H132.3C137.2 63.4 141 62.2 143.6 59.9C146.2 57.5 147.5 54.2 147.5 49.8C147.5 45.1 146 41.4 142.9 38.9C141.6 37.9 140.3 37.1 138.8 36.7C137.3 36.3 135.4 36.1 133 36.1H124.9V36Z" fill="#7C8083"/>
<path d="M170.9 28.8H162.7V70.6H170.9V28.8Z" fill="#7C8083"/>
<path d="M177.7 70.6V26.8L199.7 58.6L221.9 26.8V70.6H213.6V48.8L199.7 71.8L185.9 48.8V70.6H177.7Z" fill="#7C8083"/>
<path d="M258.2 70.6L275.9 48.8L259.6 28.8H270.1L281 42.5L292.1 28.8H302.6L286.2 48.8L303.9 70.6H293.6L281.1 55.3L268.6 70.6H258.2Z" fill="#7C8083"/>
<path d="M236.9 63.4V53.3H251.8V46.1H236.9V36H258.6V28.8H228.7V70.6H258.4V63.4H236.9Z" fill="#7C8083"/>
<path d="M340 70.6H349.6L324.9 26.9L300.2 70.6H309.8L313.3 64.5H336.7L340 70.6ZM324.8 42.7L332.5 57.3H317.2L324.8 42.7Z" fill="#7C8083"/>
<path d="M128.8 105.2L129.9 106.6C128.3 108.1 126.3 108.9 124.2 108.9C119.6 108.9 116.6 106 116.6 99.9C116.6 93.1 120.8 90.8 124.3 90.8C126.1 90.8 128.4 91.4 130 93.7L128.5 94.8C127.4 93.5 126 92.6 124.2 92.6C120.8 92.6 118.7 95.3 118.7 99.7C118.7 104.3 120.5 107.1 124.2 107.1C125.9 107.1 127.3 106.4 128.8 105.2Z" fill="#7C8083"/>
<path d="M137.2 95.1C139 95.1 142.6 95.7 142.6 101.6C142.6 106.7 140 108.9 136.8 108.9C133.5 108.9 131.4 106.6 131.4 101.9C131.4 96.5 134.6 95.1 137.2 95.1ZM140.5 102.1C140.5 98.9 139.6 96.7 137 96.7C134.5 96.7 133.4 98.8 133.4 101.6C133.4 104.2 133.9 107.3 136.9 107.3C139.5 107.3 140.5 104.9 140.5 102.1Z" fill="#7C8083"/>
<path d="M145.8 108.5V97.4L145.7 95.4H147.5L147.7 97.3C148.7 95.8 150.2 95 151.9 95C154.6 95 156.1 96.5 156.1 99.5V108.4H154V100.1C154 98.2 153.6 96.6 151.4 96.6C149.4 96.6 147.8 98.3 147.8 99.8V108.4H145.8V108.5Z" fill="#7C8083"/>
<path d="M162 114H159.9V94.2C159.9 92.1 160.5 89.8 164.5 89.8C166.1 89.8 168 90.4 169 90.9L168.4 92.4C167.2 91.9 165.9 91.5 164.6 91.5C162.6 91.5 161.9 92.4 161.9 94.3V95.6H169.4V108.6H167.3V97.2H162V114Z" fill="#7C8083"/>
<path d="M183.5 106.2L183.7 108.5H181.9L181.7 107H181.6C180.9 107.9 179.8 108.9 177.8 108.9C174.1 108.9 172.6 106.4 172.6 102.6C172.6 98 174.8 95.1 179.2 95.1C180 95.1 181.8 95.3 183.5 95.9V106.2ZM181.5 97.1C181 96.9 180 96.7 178.9 96.7C175.7 96.7 174.7 99.3 174.7 102.6C174.7 104.9 175.4 107.3 178.1 107.3C180.3 107.3 181.5 105.8 181.5 104.3V97.1V97.1Z" fill="#7C8083"/>
<path d="M187.4 108.5V97.4L187.3 95.4H189.1L189.3 97.3C190.3 95.8 191.8 95 193.5 95C196.2 95 197.7 96.5 197.7 99.5V108.4H195.6V100.1C195.6 98.2 195.2 96.6 193 96.6C191 96.6 189.4 98.3 189.4 99.8V108.4H187.4V108.5Z" fill="#7C8083"/>
<path d="M209.3 97L203.2 103.3L205 104.1C207.8 105.4 209.3 107.1 209.3 110C209.3 113.3 207.2 115.4 204.1 115.4C201.2 115.4 199.9 113.8 199.9 111.4C199.9 108.9 201.5 106.9 204.1 105.5C203.2 105.1 202.3 104.7 201.4 104.2V102.7L206.8 97H200.1V95.3H209.2V97H209.3ZM204.3 113.9C206.4 113.9 207.5 112.2 207.5 110.1C207.5 108.3 206.8 107.2 205.6 106.5C203 107.8 201.9 109.7 201.9 111.3C201.8 112.8 202.5 113.9 204.3 113.9Z" fill="#7C8083"/>
<path d="M221.4 106.2L221.6 108.5H219.8L219.6 107H219.5C218.8 107.9 217.7 108.9 215.7 108.9C212 108.9 210.5 106.4 210.5 102.6C210.5 98 212.7 95.1 217.1 95.1C217.9 95.1 219.7 95.3 221.4 95.9V106.2ZM219.4 97.1C218.9 96.9 217.9 96.7 216.8 96.7C213.6 96.7 212.6 99.3 212.6 102.6C212.6 104.9 213.3 107.3 216 107.3C218.2 107.3 219.4 105.8 219.4 104.3V97.1V97.1Z" fill="#7C8083"/>
<path d="M241 111.6C240.3 114.1 238.7 115.5 235.9 115.5C233.2 115.5 231.9 114.2 231.9 112.2C231.9 110.1 233.5 108.6 234.8 107.7C232.6 107.5 231.1 106.4 231.1 103.4V95.5H233.2V102.9C233.2 104.9 233.4 106.4 236.2 106.4C238.2 106.4 239.4 105.1 239.4 103.3V95.5H241.4V108C241.3 109.1 241.2 110.7 241 111.6ZM236.1 113.9C238.5 113.9 239.3 111.8 239.3 109V106.7C236.1 108 233.9 109.4 233.9 111.9C233.8 113.2 234.6 113.9 236.1 113.9Z" fill="#7C8083"/>
<path d="M256.5 91.1C259.3 91.1 262 91.9 262 95.4C262 97.3 260.9 98.5 259.2 99.2C261.4 99.6 262.9 101 262.9 103.5C262.9 106.9 260.7 108.6 256.5 108.6H251.2V91.1H256.5V91.1ZM253.2 98.4H255.8C258.6 98.4 259.8 97.2 259.8 95.5C259.8 93.2 258.1 92.7 256 92.7H253.3V98.4H253.2ZM253.2 106.8H256.4C259.6 106.8 260.6 105.3 260.6 103.4C260.6 101.2 259.1 100 256.5 100H253.2V106.8V106.8Z" fill="#7C8083"/>
<path d="M267 90.4C267.8 90.4 268.4 91 268.4 91.8C268.4 92.6 267.8 93.2 267 93.2C266.2 93.2 265.7 92.6 265.7 91.8C265.6 91 266.2 90.4 267 90.4ZM266 95.5H268.1V108.5H266V95.5Z" fill="#7C8083"/>
<path d="M281.1 98.4C281.1 102.3 276.4 102.9 273.9 102.9C273.6 102.9 273.4 102.9 273.2 102.9C273.3 105.1 274.4 107.3 277.1 107.3C278.9 107.3 280 106.5 280.5 106.1L281.3 107.4C280.6 108 279.1 108.9 277 108.9C272.9 108.9 271.2 106.1 271.2 102.2C271.2 98.3 273.3 95.1 277.3 95.1C279.7 95.1 281.1 96.4 281.1 98.4ZM277.2 96.6C274.4 96.6 273.3 99.3 273.2 101.3C273.4 101.3 273.5 101.3 273.7 101.3C275.5 101.3 279.2 100.9 279.2 98.5C279.2 97.4 278.4 96.6 277.2 96.6Z" fill="#7C8083"/>
<path d="M283.8 108.5V97.4L283.7 95.4H285.5L285.7 97.3C286.7 95.8 288.2 95 289.9 95C292.6 95 294.1 96.5 294.1 99.5V108.4H292V100.1C292 98.2 291.6 96.6 289.4 96.6C287.4 96.6 285.8 98.3 285.8 99.8V108.4H283.8V108.5Z" fill="#7C8083"/>
<path d="M307.2 98.4C307.2 102.3 302.5 102.9 300 102.9C299.7 102.9 299.5 102.9 299.3 102.9C299.4 105.1 300.5 107.3 303.2 107.3C305 107.3 306.1 106.5 306.6 106.1L307.4 107.4C306.7 108 305.2 108.9 303.1 108.9C299 108.9 297.3 106.1 297.3 102.2C297.3 98.3 299.4 95.1 303.4 95.1C305.8 95.1 307.2 96.4 307.2 98.4ZM303.3 96.6C300.5 96.6 299.4 99.3 299.3 101.3C299.5 101.3 299.6 101.3 299.8 101.3C301.6 101.3 305.3 100.9 305.3 98.5C305.3 97.4 304.4 96.6 303.3 96.6Z" fill="#7C8083"/>
<path d="M309.6 106.2C310.4 106.7 311.7 107.4 313.2 107.4C314.7 107.4 315.8 106.7 315.8 105.2C315.8 103.7 314.6 103.2 313.1 102.8C311 102.3 309.1 101.6 309.1 99C309.1 96.4 311.2 95.1 313.5 95.1C315.4 95.1 316.9 95.9 317.9 96.9L316.7 98.1C315.8 97.3 314.8 96.7 313.4 96.7C312.3 96.7 311 97.3 311 98.7C311 100.2 312.3 100.6 313.8 101.1C315.7 101.7 317.8 102.3 317.8 105C317.8 107.6 315.9 109 313.2 109C311.1 109 309.4 108.2 308.8 107.7L309.6 106.2Z" fill="#7C8083"/>
<path d="M322.6 90.3V95.5H326.3V97.3H322.6V105.1C322.6 106.8 323.3 107.4 324.5 107.4C325.4 107.4 326.1 107 326.5 106.8L327.1 108.2C326.3 108.7 325.2 109.1 324.1 109.1C320.6 109.1 320.5 107.1 320.5 105.2V90.5H322.6V90.3Z" fill="#7C8083"/>
<path d="M339 106.2L339.2 108.5H337.4L337.2 107H337.1C336.4 107.9 335.3 108.9 333.3 108.9C329.6 108.9 328.1 106.4 328.1 102.6C328.1 98 330.3 95.1 334.7 95.1C335.5 95.1 337.3 95.3 339 95.9V106.2ZM337 97.1C336.5 96.9 335.5 96.7 334.4 96.7C331.2 96.7 330.2 99.3 330.2 102.6C330.2 104.9 330.9 107.3 333.6 107.3C335.8 107.3 337 105.8 337 104.3V97.1V97.1Z" fill="#7C8083"/>
<path d="M345 108.5H343V97.2L342.8 95.4H344.6L344.8 97.3C345.4 95.8 346.6 95 348.1 95C348.9 95 349.7 95.2 350.2 95.5L349.6 97.3C349.2 97.1 348.5 96.8 347.9 96.8C346.2 96.8 345.1 98.3 345.1 100.1V108.5H345Z" fill="#7C8083"/>
</svg>
