<?xml version="1.0" encoding="utf-8"?><!-- Generator: Adobe Illustrator 23.0.1, SVG Export Plug-In . SVG Version: 6.00 Build 0)  -->
<svg xmlns:xlink="http://www.w3.org/1999/xlink" style="enable-background:new 0 0 512 512;" id="Layer_1" version="1.1" viewBox="0 0 512 512" x="0px"
	 xmlns="http://www.w3.org/2000/svg" y="0px" xml:space="preserve">
<style type="text/css">
	.st0{fill:#12C6E7;}
</style>
<path class="st0" d="M180.4,342.7c-93,0-168.7-75.7-168.7-168.7c0-93,75.7-168.7,168.7-168.7S349.1,80.9,349.1,174
	C349.1,267,273.4,342.7,180.4,342.7z M180.4,40.8C107,40.8,47.2,100.5,47.2,174S107,307.2,180.4,307.2S313.6,247.4,313.6,174
	S253.8,40.8,180.4,40.8z"/>
<path class="st0" d="M464.6,484.8c-4.6,0-9.3-1.8-12.8-5.4L274.2,296.2c-6.8-7-6.7-18.3,0.4-25.1c7-6.8,18.3-6.7,25.1,0.4
	l177.6,183.2c6.8,7,6.7,18.3-0.4,25.1C473.5,483.1,469,484.8,464.6,484.8z"/>
<path class="st0" d="M127.1,193.9c-18.4,0-33.3-14.9-33.3-33.3c0-3.7,3-6.7,6.7-6.7s6.7,3,6.7,6.7c0,11,9,20,20,20c11,0,20-9,20-20
	c0-3.7,3-6.7,6.7-6.7s6.7,3,6.7,6.7C160.4,179,145.5,193.9,127.1,193.9z"/>
<path class="st0" d="M238.1,193.9c-18.4,0-33.3-14.9-33.3-33.3c0-3.7,3-6.7,6.7-6.7s6.7,3,6.7,6.7c0,11,9,20,20,20c11,0,20-9,20-20
	c0-3.7,3-6.7,6.7-6.7s6.7,3,6.7,6.7C271.4,179,256.5,193.9,238.1,193.9z"/>
<path class="st0" d="M182.6,258.3c-11,0-20-9-20-20s9-20,20-20s20,9,20,20S193.6,258.3,182.6,258.3z"/>
<path class="st0" d="M464.6,507c-10.4,0-20.9-4.1-28.7-12.1l-93.2-96.2c-15.4-15.8-15-41.1,0.9-56.5c15.8-15.4,41.1-15,56.5,0.9
	l93.2,96.2c15.4,15.8,15,41.1-0.9,56.5C484.6,503.2,474.6,507,464.6,507z"/>
</svg>
